<svg xmlns="http://www.w3.org/2000/svg" width="70" height="125" viewBox="0 0 70 125" fill="none"><path d="M10.9754 64.9763C10.0901 67.9335 9.63951 71.0037 9.6379 74.0906C9.60797 79.9513 11.1849 87.5156 17.9971 93.2746C21.1167 95.8779 24.6836 97.8924 28.5237 99.2201C24.4024 96.5271 20.9135 92.7041 19.559 88.0023C18.7018 84.8372 18.7035 81.5008 19.564 78.3365C21.5169 70.7822 27.236 64.8417 32.9003 59.7978C42.0355 51.66 52.0843 44.6373 62.1241 37.6705C63.9117 36.2486 65.7957 34.9522 67.7624 33.7906C67.7624 33.7906 34.7953 44.2214 10.9794 64.9753L10.9754 64.9763Z" fill="url(#paint0_linear_0_623)"></path><path d="M14.2489 62.2346C13.1411 63.1283 12.0503 64.0426 10.9764 64.9775C10.091 67.9347 9.64049 71.0049 9.63887 74.0917C9.60895 79.9524 11.1859 87.5167 17.9981 93.2757C19.4907 94.473 21.0633 95.567 22.7048 96.5502C20.7902 95.0782 19.0069 93.443 17.3747 91.663C11.2846 84.7081 10.8378 76.7099 11.7763 70.7105C12.2323 67.7896 13.0644 64.94 14.2519 62.2326L14.2489 62.2346Z" fill="#009BE8"></path><path d="M25.6153 122.046C28.1731 121.419 30.6684 120.56 33.0698 119.479C39.926 116.388 45.9114 111.321 49.0153 104.355C52.2534 96.6745 52.5611 88.073 49.88 80.1809C51.6434 92.7661 38.9146 109.926 17.9971 93.2718C11.1839 87.5128 9.60798 79.9485 9.6379 74.0878C9.63953 71.0009 10.0901 67.9307 10.9754 64.9735C10.9754 64.9735 -2.0666 77.9308 0.283278 96.5104C2.63315 115.09 22.5124 122.662 22.5124 122.662C22.5124 122.662 22.7428 122.675 23.1357 122.702C23.9746 122.531 24.8029 122.311 25.6163 122.044L25.6153 122.046Z" fill="url(#paint1_linear_0_623)"></path><path d="M69.2327 90.2586C69.2329 94.821 68.3343 99.3387 66.5885 103.554C64.8426 107.769 62.2835 111.599 59.0575 114.825C55.8314 118.051 52.0015 120.61 47.7864 122.356C43.5713 124.102 39.0536 125 34.4913 125C25.7221 125 22.5135 122.667 22.5115 122.664C22.9204 122.963 25.1845 122.151 25.6154 122.046C28.1733 121.419 30.6685 120.56 33.07 119.479C39.9261 116.388 45.9115 111.321 49.0154 104.355C53.77 93.6827 52.0655 79.6802 44.7266 70.6657C41.2289 66.6402 37.2761 63.0341 32.9473 59.9197C27.5364 55.7635 19.3966 48.4316 18.2326 45.7377C16.9038 43.376 16.0647 40.7707 15.7653 38.0775C15.4659 35.3843 15.7124 32.6583 16.4902 30.0625C17.6722 26.4454 19.542 23.0909 21.9968 20.1832C18.5398 37.2208 48.788 53.6371 59.0153 65.3017C69.2427 76.9663 69.2397 85.89 69.2397 90.2596L69.2327 90.2586Z" fill="url(#paint2_linear_0_623)"></path><path d="M21.7236 22.7555C21.732 21.8926 21.8215 21.0323 21.9909 20.1862C19.5361 23.0938 17.6662 26.4484 16.4842 30.0654C14.9855 35.0595 15.4862 40.4405 17.8806 45.0723C16.1833 41.0348 15.8654 36.5502 16.976 32.3136C17.9535 28.8605 19.5629 25.6187 21.7226 22.7525L21.7236 22.7555Z" fill="#009BE8"></path><path d="M18.2283 45.7395C16.8992 43.378 16.0596 40.7728 15.7599 38.0796C15.4602 35.3863 15.7064 32.6603 16.4839 30.0644C17.6659 26.4473 19.5357 23.0927 21.9905 20.1851C26.6384 14.5688 32.2717 16.3401 39.7802 22.157C47.2886 27.9738 60.7645 13.0806 59.8439 10.1154C58.9233 7.15009 49.5866 -0.363332 34.7363 0.0136855C31.0649 0.0136855 8.00598 4.27957 8.00598 24.7492C8.43686 35.2219 18.3789 46.0009 18.3789 46.0009H18.3839C18.3301 45.9111 18.2792 45.8283 18.2283 45.7395Z" fill="url(#paint3_linear_0_623)"></path><path d="M25.6153 122.046C28.1731 121.419 30.6684 120.56 33.0698 119.479C39.926 116.388 45.9114 111.321 49.0153 104.355C52.2534 96.6745 52.5611 88.073 49.88 80.1809C51.6434 92.7661 38.9146 109.926 17.9971 93.2718C11.1839 87.5128 9.60798 79.9485 9.6379 74.0878C9.63953 71.0009 10.0901 67.9307 10.9754 64.9735C10.9754 64.9735 -2.0666 77.9308 0.283278 96.5104C2.63315 115.09 22.5124 122.662 22.5124 122.662C22.5124 122.662 22.7428 122.675 23.1357 122.702C23.9746 122.531 24.8029 122.311 25.6163 122.044L25.6153 122.046Z" fill="url(#paint4_linear_0_623)"></path><path d="M49.2148 88.0862C49.9731 94.9929 48.5728 101.965 45.2063 108.043C41.3982 114.65 34.9201 119.073 27.7807 121.433C27.5583 121.505 27.3368 121.575 27.1144 121.645C29.1497 121.07 31.1397 120.346 33.0679 119.477C39.924 116.385 45.9094 111.319 49.0133 104.353C52.2515 96.6724 52.5592 88.0709 49.8781 80.1788C50.2232 82.8307 49.997 85.5258 49.2148 88.0831V88.0862Z" fill="#009BE8"></path><path d="M23.0707 122.702C23.0921 122.701 23.1136 122.703 23.1346 122.707C23.6465 122.62 24.1518 122.497 24.6466 122.34C24.125 122.472 23.5984 122.592 23.0707 122.702Z" fill="#009BE8"></path><path d="M53.8675 9.40321C52.543 8.43175 50.4634 6.89575 49.3234 5.98313C49.2545 5.92758 49.1726 5.8905 49.0854 5.8754C48.9982 5.8603 48.9086 5.86768 48.8251 5.89682C48.7415 5.92597 48.6668 5.97593 48.6079 6.04199C48.549 6.10805 48.5079 6.18803 48.4886 6.27437C48.1893 7.63083 48.2691 10.3019 53.5594 10.3448C53.6691 10.3445 53.776 10.3096 53.8647 10.2451C53.9535 10.1806 54.0197 10.0897 54.0538 9.9854C54.0879 9.8811 54.0883 9.76869 54.0549 9.66417C54.0214 9.55964 53.9559 9.46833 53.8675 9.40321Z" fill="#373D42"></path><defs>
<linearGradient id="paint0_linear_0_623" x1="8.41686" y1="99.0238" x2="48.4359" y2="51.9005" gradientUnits="userSpaceOnUse">
<stop stop-color="#00C1FE"></stop>
<stop offset="1" stop-color="#42FDE9"></stop>
</linearGradient>
<linearGradient id="paint1_linear_0_623" x1="0" y1="93.8378" x2="51.6891" y2="93.8378" gradientUnits="userSpaceOnUse">
<stop stop-color="#26CAFE"></stop>
<stop offset="1" stop-color="#6DFDED"></stop>
</linearGradient>
<linearGradient id="paint2_linear_0_623" x1="43.9415" y1="76.7844" x2="66.4848" y2="78.1976" gradientUnits="userSpaceOnUse">
<stop stop-color="#00C1FE"></stop>
<stop offset="1" stop-color="#42FDE9"></stop>
</linearGradient>
<linearGradient id="paint3_linear_0_623" x1="8.26539" y1="33.9946" x2="35.0558" y2="7.28118" gradientUnits="userSpaceOnUse">
<stop stop-color="#26CAFE"></stop>
<stop offset="1" stop-color="#6DFDED"></stop>
</linearGradient>
<linearGradient id="paint4_linear_0_623" x1="58.202" y1="105.326" x2="1.30975" y2="92.6843" gradientUnits="userSpaceOnUse">
<stop stop-color="#00C1FE"></stop>
<stop offset="1" stop-color="#42FDE9"></stop>
</linearGradient>
</defs><style>@media (prefers-color-scheme: light) { :root { filter: contrast(1) brightness(1); } }
</style></svg>